<svg xmlns="http://www.w3.org/2000/svg"
     viewBox="0.009999999999998344 0.10000000000000195 6.840000000000001 6.809999999999998">
    <path d="M4.09 1.39l-2.14 0c-0.04,0 -0.06,-0.02 -0.06,-0.06l0 -0.41 2.3 0c-0.05,0.11 -0.1,0.34 -0.1,0.47zm0.21 -0.7l-2.13 0c-0.58,0 -0.48,0.04 -0.48,0.68 0,0.1 0.04,0.2 0.15,0.21 0,0.28 -0.14,0.62 -0.14,0.98 0,0.24 -0.03,0.41 0.05,0.54 0.2,0 0.18,-0.11 0.18,-0.31 0,-0.45 0.02,-0.58 0.11,-1 0,-0.05 0.02,-0.14 0.03,-0.2l2.04 0c0,0.12 0.04,0.23 0.06,0.32 0.1,0.29 0.13,0.3 0.01,0.59 -0.01,0.04 -0.09,0.21 -0.09,0.23 0,0.06 0.08,0.14 0.14,0.14 0.08,0 0.26,-0.1 0.34,-0.14 0.16,-0.07 0.35,-0.01 0.49,0.06l0 2.19 -2.22 0c0.05,-0.17 0.47,-0.51 0.47,-0.78 0,-0.31 -0.4,-0.53 -0.74,-0.08l-0.64 0.71 0 -1.18c0,-0.19 0,-0.28 -0.18,-0.28 -0.06,0.11 -0.05,0.24 -0.05,0.37l0 1.28c-0.12,0.08 -0.64,0.34 -0.77,0.38 -0.43,0.1 -0.92,0.01 -0.92,0.26 0,0.17 -0.03,1.14 0.02,1.23 0.07,0.11 0.3,0.04 0.4,0.02 0.33,-0.05 0.66,-0.09 0.99,-0.16 0.29,-0.06 0.51,-0.22 0.77,-0.35 0.07,-0.03 0.2,-0.08 0.2,-0.17 0,-0.15 -0.14,-0.11 -0.21,-0.06 -0.17,0.1 -0.64,0.33 -0.8,0.37l-1.16 0.19 0 -1.02c0.22,0 0.72,-0.09 0.91,-0.16 0.26,-0.1 0.64,-0.3 0.86,-0.49l0.46 -0.49c0.09,-0.09 0.41,-0.49 0.48,-0.49l0.1 0c0.11,0.16 0.08,0.16 -0.14,0.45 -0.02,0.04 -0.04,0.06 -0.07,0.1 -0.03,0.04 -0.05,0.07 -0.08,0.11 -0.08,0.11 -0.19,0.23 -0.09,0.37 0.1,0.13 0.33,0.08 0.47,0.08l2.22 0c0.02,0.03 0.06,0.07 0.06,0.12 0,0.15 -0.12,0.16 -0.27,0.16 -0.33,-0.01 -1.11,-0.04 -1.34,0 -0.42,0.07 -0.63,0.19 -0.98,0.36 -0.06,0.03 -0.09,0.05 -0.14,0.08 -0.2,0.1 -0.09,0.23 -0.02,0.23 0.15,0 0.62,-0.47 1.42,-0.47 0.32,0 0.64,0 0.95,0 0.18,0 0.3,0.02 0.42,-0.05 0.3,-0.18 0.18,-0.63 -0.17,-0.66l0 -2.1c0.3,0 0.46,0.06 0.83,-0.11 0.3,-0.14 0.58,-0.38 0.72,-0.69 0.17,-0.37 0.18,-0.79 0.03,-1.17 -0.04,-0.1 -0.14,-0.35 -0.27,-0.35 -0.04,0 -0.05,0.03 -0.09,0.05 0,0.2 0.07,0.14 0.16,0.38 0.33,0.82 -0.3,1.68 -1.04,1.68 -0.63,0 -0.57,-0.21 -0.96,-0.16 -0.12,0.02 -0.17,0.07 -0.27,0.09 0.02,-0.06 0.04,-0.08 0.06,-0.14 0.02,-0.07 0.03,-0.18 0.03,-0.28 0,-0.29 -0.34,-0.52 -0.07,-1.21 0.16,-0.41 0.6,-0.74 1.06,-0.74 0.23,0 0.45,0.04 0.65,0.14 0.08,0.05 0.15,0.13 0.22,0.05 0.03,-0.04 0.02,-0.05 0.04,-0.09 -0.06,-0.11 -0.19,-0.16 -0.3,-0.21 -0.46,-0.2 -1.11,-0.1 -1.47,0.23 -0.11,0.1 -0.23,0.22 -0.3,0.36z
M5.3 1.71c-0.03,-0.03 -0.36,-0.39 -0.43,-0.39 -0.08,0 -0.09,0.03 -0.12,0.1 0.06,0.14 0.1,0.15 0.24,0.29 0.25,0.25 0.3,0.32 0.45,0.16 0.05,-0.05 0.08,-0.06 0.13,-0.11l0.64 -0.57c0.14,-0.11 0.12,-0.13 0.09,-0.24 -0.14,-0.03 -0.11,-0.03 -0.22,0.08 -0.04,0.04 -0.06,0.05 -0.11,0.09l-0.22 0.2c-0.04,0.05 -0.06,0.05 -0.11,0.1l-0.21 0.19c-0.06,0.06 -0.07,0.07 -0.13,0.1z"
          fill="currentColor"/>
</svg>